<?xml version="1.0" encoding="utf-8"?>
<!-- Generator: Adobe Illustrator 28.2.0, SVG Export Plug-In . SVG Version: 6.00 Build 0)  -->
<svg version="1.1" id="Layer_1" xmlns="http://www.w3.org/2000/svg" xmlns:xlink="http://www.w3.org/1999/xlink" x="0px" y="0px"
	 viewBox="0 0 512 512" style="enable-background:new 0 0 512 512;" xml:space="preserve">
<style type="text/css">
	.st0{display:none;}
	.st1{display:inline;}
	.st2{fill:#162144;}
	.st3{display:inline;fill:#162144;}
	.st4{display:inline;fill:#162144;stroke:#000000;stroke-width:0.25;stroke-linecap:round;stroke-miterlimit:10;}
	.st5{stroke:#000000;stroke-width:0.25;stroke-linecap:round;stroke-miterlimit:10;}
	.st6{fill:none;stroke:#000000;stroke-width:3;stroke-linecap:round;stroke-miterlimit:10;}
	.st7{fill:#FFFFFF;}
</style>
<g>
	<g>
		<g>
			<path d="M46.08,312.2h4.11v24.35h-4.11V312.2z"/>
			<path d="M81.02,326.52v10.03h-3.9v-18.53h3.9v3.38c0.63-1.14,1.49-2.03,2.6-2.68c1.1-0.65,2.29-0.98,3.57-0.98
				c2.09,0,3.78,0.64,5.07,1.92c1.29,1.28,1.93,3.12,1.93,5.54v11.36h-3.9v-10.17c0-3.41-1.42-5.12-4.25-5.12
				c-1.35,0-2.52,0.45-3.52,1.34C81.52,323.49,81.02,324.8,81.02,326.52z"/>
			<path d="M121.95,334.18c-1.74-1.77-2.61-4.09-2.61-6.97s0.89-5.18,2.68-6.9c1.79-1.72,3.92-2.58,6.39-2.58s4.46,1.05,5.97,3.14
				V310.7h3.9v25.85h-3.9v-2.79c-1.44,2.04-3.54,3.07-6.31,3.07C125.74,336.83,123.7,335.95,121.95,334.18z M123.24,327.37
				c0,1.78,0.57,3.22,1.71,4.34c1.14,1.12,2.47,1.67,4.01,1.67c1.53,0,2.83-0.56,3.9-1.69c1.07-1.13,1.6-2.57,1.6-4.34
				c0-1.77-0.53-3.24-1.6-4.42c-1.07-1.19-2.38-1.78-3.94-1.78c-1.56,0-2.89,0.59-4.01,1.78
				C123.8,324.11,123.24,325.59,123.24,327.37z"/>
			<path d="M165.08,314.32c-0.49-0.49-0.73-1.07-0.73-1.74c0-0.67,0.24-1.25,0.73-1.74c0.49-0.49,1.07-0.73,1.74-0.73
				c0.67,0,1.25,0.24,1.74,0.73c0.49,0.49,0.73,1.07,0.73,1.74c0,0.67-0.24,1.25-0.73,1.74c-0.49,0.49-1.07,0.73-1.74,0.73
				C166.15,315.05,165.57,314.81,165.08,314.32z M168.74,336.55h-3.9v-18.53h3.9V336.55z"/>
			<path d="M208.49,331.01c0,1.77-0.64,3.18-1.92,4.23c-1.28,1.06-2.91,1.59-4.91,1.59c-1.35,0-2.75-0.24-4.2-0.73
				c-1.45-0.49-2.74-1.17-3.85-2.06l1.88-3.03c2.16,1.63,4.25,2.44,6.27,2.44c0.88,0,1.58-0.2,2.09-0.61
				c0.51-0.41,0.77-0.92,0.77-1.55c0-0.93-1.23-1.77-3.69-2.51c-0.19-0.07-0.33-0.12-0.42-0.14c-3.86-1.05-5.78-2.79-5.78-5.23
				c0-1.72,0.67-3.09,2-4.13s3.07-1.55,5.21-1.55c2.14,0,4.16,0.63,6.06,1.88l-1.46,2.89c-1.51-1-3.15-1.5-4.91-1.5
				c-0.93,0-1.68,0.17-2.26,0.51c-0.58,0.34-0.87,0.84-0.87,1.52c0,0.61,0.3,1.05,0.91,1.32c0.42,0.21,1,0.41,1.76,0.59
				c0.75,0.19,1.42,0.37,2,0.56c0.58,0.19,1.14,0.4,1.69,0.63c0.54,0.23,1.13,0.56,1.76,0.98
				C207.86,327.95,208.49,329.25,208.49,331.01z"/>
			<path d="M237.72,336.55h-3.9V310.7h3.9v15.19l7.53-7.87h5.02l-7.04,7.35l7.56,11.18h-4.74l-5.5-8.12l-2.82,2.86V336.55z"/>
			<path d="M289.66,336.55h-3.55v-2.47c-1.53,1.83-3.59,2.75-6.17,2.75c-1.93,0-3.53-0.55-4.79-1.64c-1.27-1.09-1.9-2.55-1.9-4.37
				c0-1.82,0.67-3.19,2.02-4.09c1.35-0.91,3.17-1.36,5.47-1.36h5.05v-0.7c0-2.46-1.37-3.69-4.11-3.69c-1.72,0-3.51,0.63-5.37,1.88
				l-1.74-2.44c2.25-1.79,4.81-2.68,7.66-2.68c2.18,0,3.97,0.55,5.35,1.65c1.38,1.1,2.07,2.84,2.07,5.21V336.55z M285.76,329.65
				v-1.57h-4.39c-2.81,0-4.21,0.88-4.21,2.65c0,0.91,0.35,1.6,1.04,2.07c0.7,0.48,1.67,0.71,2.91,0.71s2.33-0.35,3.26-1.05
				C285.3,331.78,285.76,330.84,285.76,329.65z"/>
			<path d="M347.01,336.55V312.2h4.11v20.45h11.11v3.9H347.01z"/>
			<path d="M387.31,314.32c-0.49-0.49-0.73-1.07-0.73-1.74c0-0.67,0.25-1.25,0.73-1.74c0.49-0.49,1.07-0.73,1.74-0.73
				c0.67,0,1.25,0.24,1.74,0.73c0.49,0.49,0.73,1.07,0.73,1.74c0,0.67-0.24,1.25-0.73,1.74c-0.49,0.49-1.07,0.73-1.74,0.73
				C388.38,315.05,387.8,314.81,387.31,314.32z M390.97,336.55h-3.9v-18.53h3.9V336.55z"/>
			<path d="M422.43,336.55l-7.46-18.53h4.04l5.64,14l5.64-14h4.04l-7.46,18.53H422.43z"/>
			<path d="M471.31,331.01c0,1.77-0.64,3.18-1.92,4.23c-1.28,1.06-2.91,1.59-4.91,1.59c-1.35,0-2.75-0.24-4.2-0.73
				c-1.45-0.49-2.73-1.17-3.85-2.06l1.88-3.03c2.16,1.63,4.25,2.44,6.27,2.44c0.88,0,1.58-0.2,2.09-0.61
				c0.51-0.41,0.77-0.92,0.77-1.55c0-0.93-1.23-1.77-3.69-2.51c-0.19-0.07-0.33-0.12-0.42-0.14c-3.85-1.05-5.78-2.79-5.78-5.23
				c0-1.72,0.67-3.09,2-4.13s3.07-1.55,5.21-1.55c2.14,0,4.16,0.63,6.06,1.88l-1.46,2.89c-1.51-1-3.15-1.5-4.91-1.5
				c-0.93,0-1.68,0.17-2.26,0.51c-0.58,0.34-0.87,0.84-0.87,1.52c0,0.61,0.3,1.05,0.91,1.32c0.42,0.21,1,0.41,1.76,0.59
				c0.75,0.19,1.42,0.37,2,0.56c0.58,0.19,1.14,0.4,1.69,0.63c0.54,0.23,1.13,0.56,1.76,0.98
				C470.68,327.95,471.31,329.25,471.31,331.01z"/>
		</g>
		<g>
			<path d="M46.08,312.2h4.11v24.35h-4.11V312.2z"/>
			<path d="M81.02,326.52v10.03h-3.9v-18.53h3.9v3.38c0.63-1.14,1.49-2.03,2.6-2.68c1.1-0.65,2.29-0.98,3.57-0.98
				c2.09,0,3.78,0.64,5.07,1.92c1.29,1.28,1.93,3.12,1.93,5.54v11.36h-3.9v-10.17c0-3.41-1.42-5.12-4.25-5.12
				c-1.35,0-2.52,0.45-3.52,1.34C81.52,323.49,81.02,324.8,81.02,326.52z"/>
			<path d="M121.95,334.18c-1.74-1.77-2.61-4.09-2.61-6.97s0.89-5.18,2.68-6.9c1.79-1.72,3.92-2.58,6.39-2.58s4.46,1.05,5.97,3.14
				V310.7h3.9v25.85h-3.9v-2.79c-1.44,2.04-3.54,3.07-6.31,3.07C125.74,336.83,123.7,335.95,121.95,334.18z M123.24,327.37
				c0,1.78,0.57,3.22,1.71,4.34c1.14,1.12,2.47,1.67,4.01,1.67c1.53,0,2.83-0.56,3.9-1.69c1.07-1.13,1.6-2.57,1.6-4.34
				c0-1.77-0.53-3.24-1.6-4.42c-1.07-1.19-2.38-1.78-3.94-1.78c-1.56,0-2.89,0.59-4.01,1.78
				C123.8,324.11,123.24,325.59,123.24,327.37z"/>
			<path d="M165.08,314.32c-0.49-0.49-0.73-1.07-0.73-1.74c0-0.67,0.24-1.25,0.73-1.74c0.49-0.49,1.07-0.73,1.74-0.73
				c0.67,0,1.25,0.24,1.74,0.73c0.49,0.49,0.73,1.07,0.73,1.74c0,0.67-0.24,1.25-0.73,1.74c-0.49,0.49-1.07,0.73-1.74,0.73
				C166.15,315.05,165.57,314.81,165.08,314.32z M168.74,336.55h-3.9v-18.53h3.9V336.55z"/>
			<path d="M208.49,331.01c0,1.77-0.64,3.18-1.92,4.23c-1.28,1.06-2.91,1.59-4.91,1.59c-1.35,0-2.75-0.24-4.2-0.73
				c-1.45-0.49-2.74-1.17-3.85-2.06l1.88-3.03c2.16,1.63,4.25,2.44,6.27,2.44c0.88,0,1.58-0.2,2.09-0.61
				c0.51-0.41,0.77-0.92,0.77-1.55c0-0.93-1.23-1.77-3.69-2.51c-0.19-0.07-0.33-0.12-0.42-0.14c-3.86-1.05-5.78-2.79-5.78-5.23
				c0-1.72,0.67-3.09,2-4.13s3.07-1.55,5.21-1.55c2.14,0,4.16,0.63,6.06,1.88l-1.46,2.89c-1.51-1-3.15-1.5-4.91-1.5
				c-0.93,0-1.68,0.17-2.26,0.51c-0.58,0.34-0.87,0.84-0.87,1.52c0,0.61,0.3,1.05,0.91,1.32c0.42,0.21,1,0.41,1.76,0.59
				c0.75,0.19,1.42,0.37,2,0.56c0.58,0.19,1.14,0.4,1.69,0.63c0.54,0.23,1.13,0.56,1.76,0.98
				C207.86,327.95,208.49,329.25,208.49,331.01z"/>
			<path d="M237.72,336.55h-3.9V310.7h3.9v15.19l7.53-7.87h5.02l-7.04,7.35l7.56,11.18h-4.74l-5.5-8.12l-2.82,2.86V336.55z"/>
			<path d="M289.66,336.55h-3.55v-2.47c-1.53,1.83-3.59,2.75-6.17,2.75c-1.93,0-3.53-0.55-4.79-1.64c-1.27-1.09-1.9-2.55-1.9-4.37
				c0-1.82,0.67-3.19,2.02-4.09c1.35-0.91,3.17-1.36,5.47-1.36h5.05v-0.7c0-2.46-1.37-3.69-4.11-3.69c-1.72,0-3.51,0.63-5.37,1.88
				l-1.74-2.44c2.25-1.79,4.81-2.68,7.66-2.68c2.18,0,3.97,0.55,5.35,1.65c1.38,1.1,2.07,2.84,2.07,5.21V336.55z M285.76,329.65
				v-1.57h-4.39c-2.81,0-4.21,0.88-4.21,2.65c0,0.91,0.35,1.6,1.04,2.07c0.7,0.48,1.67,0.71,2.91,0.71s2.33-0.35,3.26-1.05
				C285.3,331.78,285.76,330.84,285.76,329.65z"/>
			<path d="M347.01,336.55V312.2h4.11v20.45h11.11v3.9H347.01z"/>
			<path d="M387.31,314.32c-0.49-0.49-0.73-1.07-0.73-1.74c0-0.67,0.25-1.25,0.73-1.74c0.49-0.49,1.07-0.73,1.74-0.73
				c0.67,0,1.25,0.24,1.74,0.73c0.49,0.49,0.73,1.07,0.73,1.74c0,0.67-0.24,1.25-0.73,1.74c-0.49,0.49-1.07,0.73-1.74,0.73
				C388.38,315.05,387.8,314.81,387.31,314.32z M390.97,336.55h-3.9v-18.53h3.9V336.55z"/>
			<path d="M422.43,336.55l-7.46-18.53h4.04l5.64,14l5.64-14h4.04l-7.46,18.53H422.43z"/>
			<path d="M471.31,331.01c0,1.77-0.64,3.18-1.92,4.23c-1.28,1.06-2.91,1.59-4.91,1.59c-1.35,0-2.75-0.24-4.2-0.73
				c-1.45-0.49-2.73-1.17-3.85-2.06l1.88-3.03c2.16,1.63,4.25,2.44,6.27,2.44c0.88,0,1.58-0.2,2.09-0.61
				c0.51-0.41,0.77-0.92,0.77-1.55c0-0.93-1.23-1.77-3.69-2.51c-0.19-0.07-0.33-0.12-0.42-0.14c-3.85-1.05-5.78-2.79-5.78-5.23
				c0-1.72,0.67-3.09,2-4.13s3.07-1.55,5.21-1.55c2.14,0,4.16,0.63,6.06,1.88l-1.46,2.89c-1.51-1-3.15-1.5-4.91-1.5
				c-0.93,0-1.68,0.17-2.26,0.51c-0.58,0.34-0.87,0.84-0.87,1.52c0,0.61,0.3,1.05,0.91,1.32c0.42,0.21,1,0.41,1.76,0.59
				c0.75,0.19,1.42,0.37,2,0.56c0.58,0.19,1.14,0.4,1.69,0.63c0.54,0.23,1.13,0.56,1.76,0.98
				C470.68,327.95,471.31,329.25,471.31,331.01z"/>
		</g>
	</g>
	<g class="st0">
		<g class="st1">
			<g>
				<path class="st2" d="M38.85,219.82h22.18v77.63H38.85V219.82z"/>
				<path class="st2" d="M76.33,236.45v-16.64h66.54c22.18,0,33.27,9.24,33.27,27.72v27.72c0,14.79-11.09,22.18-33.27,22.18H76.33
					v-44.36h22.18v27.72h44.36c7.39,0,11.09-3.7,11.09-11.09v-22.18c0-7.39-3.7-11.09-11.09-11.09H76.33z"/>
				<path class="st2" d="M206.7,266.95v2.77c0,7.39,3.7,11.09,11.09,11.09h55.45v16.63h-55.45c-22.18,0-33.27-9.24-33.27-27.72
					v-22.18c0-18.48,11.09-27.72,33.27-27.72h55.45l0.06,16.64h-55.5c-7.39,0-11.09,3.7-11.09,11.09v2.77h66.54v16.63H206.7z"/>
				<path class="st2" d="M312.12,280.81l-8.32,16.63h-24.95l33.27-66.54c3.7-7.39,9.24-11.09,16.63-11.09h5.54
					c7.39,0,12.94,3.7,16.64,11.09l33.27,66.54h-24.95l-8.32-16.63H312.12z M342.61,264.18L331.52,242l-11.09,22.18H342.61z"/>
				<path class="st2" d="M409.3,269.72c0,7.39,3.7,11.09,11.09,11.09h55.45v16.63h-55.45c-22.18,0-33.27-9.24-33.27-27.72v-49.9
					h22.18V269.72z"/>
			</g>
			<g>
				<path d="M38.85,219.82h22.18v77.63H38.85V219.82z"/>
				<path d="M76.33,236.45v-16.64h66.54c22.18,0,33.27,9.24,33.27,27.72v27.72c0,14.79-11.09,22.18-33.27,22.18H76.33v-44.36h22.18
					v27.72h44.36c7.39,0,11.09-3.7,11.09-11.09v-22.18c0-7.39-3.7-11.09-11.09-11.09H76.33z"/>
				<path d="M206.7,266.95v2.77c0,7.39,3.7,11.09,11.09,11.09h55.45v16.63h-55.45c-22.18,0-33.27-9.24-33.27-27.72v-22.18
					c0-18.48,11.09-27.72,33.27-27.72h55.45l0.06,16.64h-55.5c-7.39,0-11.09,3.7-11.09,11.09v2.77h66.54v16.63H206.7z"/>
				<path d="M312.12,280.81l-8.32,16.63h-24.95l33.27-66.54c3.7-7.39,9.24-11.09,16.63-11.09h5.54c7.39,0,12.94,3.7,16.64,11.09
					l33.27,66.54h-24.95l-8.32-16.63H312.12z M342.61,264.18L331.52,242l-11.09,22.18H342.61z"/>
				<path d="M409.3,269.72c0,7.39,3.7,11.09,11.09,11.09h55.45v16.63h-55.45c-22.18,0-33.27-9.24-33.27-27.72v-49.9h22.18V269.72z"
					/>
			</g>
		</g>
		<path class="st3" d="M53.33,213.65"/>
		<path class="st4" d="M53.37,213.6"/>
	</g>
	<g>
		<g>
			<g>
				<path d="M36.16,219.82h22.18v77.63H36.16V219.82z"/>
				<path d="M73.64,236.45v-16.64h66.54c22.18,0,33.27,9.24,33.27,27.72v27.72c0,14.79-11.09,22.18-33.27,22.18H73.64v-44.36h22.18
					v27.72h44.36c7.39,0,11.09-3.7,11.09-11.09v-22.18c0-7.39-3.7-11.09-11.09-11.09H73.64z"/>
				<path d="M204.01,266.95v2.77c0,7.39,3.7,11.09,11.09,11.09h55.45v16.63H215.1c-22.18,0-33.27-9.24-33.27-27.72v-22.18
					c0-18.48,11.09-27.72,33.27-27.72h55.45l0.06,16.64h-55.5c-7.39,0-11.09,3.7-11.09,11.09v2.77h66.54v16.63H204.01z"/>
				<path d="M309.43,280.81l-8.32,16.63h-24.95l33.27-66.54c3.7-7.39,9.24-11.09,16.63-11.09h5.54c7.39,0,12.94,3.7,16.64,11.09
					l33.27,66.54h-24.95l-8.32-16.63H309.43z M339.92,264.18L328.83,242l-11.09,22.18H339.92z"/>
				<path d="M406.61,269.72c0,7.39,3.7,11.09,11.09,11.09h55.45v16.63H417.7c-22.18,0-33.27-9.24-33.27-27.72v-49.9h22.18V269.72z"
					/>
			</g>
			<g>
				<path d="M36.16,219.82h22.18v77.63H36.16V219.82z"/>
				<path d="M73.64,236.45v-16.64h66.54c22.18,0,33.27,9.24,33.27,27.72v27.72c0,14.79-11.09,22.18-33.27,22.18H73.64v-44.36h22.18
					v27.72h44.36c7.39,0,11.09-3.7,11.09-11.09v-22.18c0-7.39-3.7-11.09-11.09-11.09H73.64z"/>
				<path d="M204.01,266.95v2.77c0,7.39,3.7,11.09,11.09,11.09h55.45v16.63H215.1c-22.18,0-33.27-9.24-33.27-27.72v-22.18
					c0-18.48,11.09-27.72,33.27-27.72h55.45l0.06,16.64h-55.5c-7.39,0-11.09,3.7-11.09,11.09v2.77h66.54v16.63H204.01z"/>
				<path d="M309.43,280.81l-8.32,16.63h-24.95l33.27-66.54c3.7-7.39,9.24-11.09,16.63-11.09h5.54c7.39,0,12.94,3.7,16.64,11.09
					l33.27,66.54h-24.95l-8.32-16.63H309.43z M339.92,264.18L328.83,242l-11.09,22.18H339.92z"/>
				<path d="M406.61,269.72c0,7.39,3.7,11.09,11.09,11.09h55.45v16.63H417.7c-22.18,0-33.27-9.24-33.27-27.72v-49.9h22.18V269.72z"
					/>
			</g>
		</g>
		<path d="M50.64,213.65"/>
		<path class="st5" d="M50.67,213.6"/>
	</g>
</g>
<path d="M70,172c0.65,5.64,0.08,24.07-22.67,24.95c-0.09,0.01-0.14-0.1-0.08-0.17l12.3-14.92c0.08-0.1-0.05-0.22-0.15-0.14
	l-14.2,12.79c-0.06,0.05-0.16,0.02-0.17-0.06C44.73,192.25,44.48,171,70,172"/>
<polyline class="st6" points="21,181.5 30.72,181.63 37.66,203.94 57,203.94 "/>
<circle class="st7" cx="40.5" cy="211.5" r="3"/>
<circle class="st7" cx="53" cy="211.5" r="3"/>
</svg>
